{
  "accessors": [
    {
      "name": "core.001_Cylinder.003-Mesh_positions",
      "componentType": 5126,
      "count": 1820,
      "min": [
        -0.1373869925737381,
        -0.010968999937176704,
        -0.1373869925737381
      ],
      "max": [
        0.1373869925737381,
        20.706382751464844,
        0.1373869925737381
      ],
      "type": "VEC3",
      "bufferView": 0,
      "byteOffset": 0
    },
    {
      "name": "core.001_Cylinder.003-Mesh_normals",
      "componentType": 5126,
      "count": 1820,
      "min": [
        -0.995199978351593,
        -1,
        -0.995199978351593
      ],
      "max": [
        0.995199978351593,
        0.998199999332428,
        0.9979000091552734
      ],
      "type": "VEC3",
      "bufferView": 0,
      "byteOffset": 462216
    },
    {
      "name": "core.001_Cylinder.003-Mesh_texcoords",
      "componentType": 5126,
      "count": 1820,
      "min": [
        0,
        0
      ],
      "max": [
        1,
        0.9900000095367432
      ],
      "type": "VEC2",
      "bufferView": 1,
      "byteOffset": 0
    },
    {
      "name": "core.001_Cylinder.003-Mesh_0_indices",
      "componentType": 5123,
      "count": 2862,
      "min": [
        0
      ],
      "max": [
        1819
      ],
      "type": "SCALAR",
      "bufferView": 2,
      "byteOffset": 0
    },
    {
      "name": "Cylinder.003_Cylinder.004-Mesh_positions",
      "componentType": 5126,
      "count": 36698,
      "min": [
        -0.741828978061676,
        10.484036445617676,
        -0.723471999168396
      ],
      "max": [
        0.738860011100769,
        42.827003479003906,
        0.7167099714279175
      ],
      "type": "VEC3",
      "bufferView": 0,
      "byteOffset": 21840
    },
    {
      "name": "Cylinder.003_Cylinder.004-Mesh_normals",
      "componentType": 5126,
      "count": 36698,
      "min": [
        -1,
        -0.9983999729156494,
        -0.9998999834060669
      ],
      "max": [
        1,
        0.9965000152587891,
        0.9998999834060669
      ],
      "type": "VEC3",
      "bufferView": 0,
      "byteOffset": 484056
    },
    {
      "name": "Cylinder.003_Cylinder.004-Mesh_texcoords",
      "componentType": 5126,
      "count": 36698,
      "min": [
        0,
        -9.999999974752427e-7
      ],
      "max": [
        1.0000009536743164,
        0.9900000095367432
      ],
      "type": "VEC2",
      "bufferView": 1,
      "byteOffset": 14560
    },
    {
      "name": "Cylinder.003_Cylinder.004-Mesh_0_indices",
      "componentType": 5123,
      "count": 56319,
      "min": [
        0
      ],
      "max": [
        36697
      ],
      "type": "SCALAR",
      "bufferView": 2,
      "byteOffset": 5724
    }
  ],
  "asset": {
    "generator": "obj2gltf",
    "version": "2.0"
  },
  "buffers": [
    {
      "name": "almond",
      "byteLength": 1350940,
      "uri": "data:application/octet-stream;base64,"
    }
  ],
  "bufferViews": [
    {
      "name": "bufferView_0",
      "buffer": 0,
      "byteLength": 924432,
      "byteOffset": 0,
      "byteStride": 12,
      "target": 34962
    },
    {
      "name": "bufferView_1",
      "buffer": 0,
      "byteLength": 308144,
      "byteOffset": 924432,
      "byteStride": 8,
      "target": 34962
    },
    {
      "name": "bufferView_2",
      "buffer": 0,
      "byteLength": 118364,
      "byteOffset": 1232576,
      "target": 34963
    }
  ],
  "materials": [
    {
      "name": "Material.002",
      "pbrMetallicRoughness": {
        "baseColorFactor": [
          0.8,
          0.413999,
          0.062736,
          1
        ],
        "metallicFactor": 0,
        "roughnessFactor": 0.676000006
      },
      "emissiveFactor": [
        0,
        0,
        0
      ],
      "alphaMode": "OPAQUE",
      "doubleSided": false
    },
    {
      "name": "choko.001",
      "pbrMetallicRoughness": {
        "baseColorFactor": [
          0.112805,
          0.03299,
          0.02006,
          1
        ],
        "metallicFactor": 0,
        "roughnessFactor": 0.938437877
      },
      "emissiveFactor": [
        0,
        0,
        0
      ],
      "alphaMode": "OPAQUE",
      "doubleSided": false
    }
  ],
  "meshes": [
    {
      "name": "core.001_Cylinder.003-Mesh",
      "primitives": [
        {
          "attributes": {
            "POSITION": 0,
            "NORMAL": 1,
            "TEXCOORD_0": 2
          },
          "indices": 3,
          "material": 0,
          "mode": 4
        }
      ]
    },
    {
      "name": "Cylinder.003_Cylinder.004-Mesh",
      "primitives": [
        {
          "attributes": {
            "POSITION": 4,
            "NORMAL": 5,
            "TEXCOORD_0": 6
          },
          "indices": 7,
          "material": 1,
          "mode": 4
        }
      ]
    }
  ],
  "nodes": [
    {
      "name": "core.001_Cylinder.003",
      "mesh": 0
    },
    {
      "name": "Cylinder.003_Cylinder.004",
      "mesh": 1
    }
  ],
  "scene": 0,
  "scenes": [
    {
      "nodes": [
        0,
        1
      ]
    }
  ]
}
