{
  "accessors": [
    {
      "name": "core.001_Cylinder.003-Mesh_positions",
      "componentType": 5126,
      "count": 1820,
      "min": [
        -0.1373869925737381,
        -0.010968999937176704,
        -0.1373869925737381
      ],
      "max": [
        0.1373869925737381,
        20.706382751464844,
        0.1373869925737381
      ],
      "type": "VEC3",
      "bufferView": 0,
      "byteOffset": 0
    },
    {
      "name": "core.001_Cylinder.003-Mesh_normals",
      "componentType": 5126,
      "count": 1820,
      "min": [
        -0.995199978351593,
        -1,
        -0.995199978351593
      ],
      "max": [
        0.995199978351593,
        0.998199999332428,
        0.9979000091552734
      ],
      "type": "VEC3",
      "bufferView": 0,
      "byteOffset": 325992
    },
    {
      "name": "core.001_Cylinder.003-Mesh_texcoords",
      "componentType": 5126,
      "count": 1820,
      "min": [
        0,
        0
      ],
      "max": [
        1,
        0.9900000095367432
      ],
      "type": "VEC2",
      "bufferView": 1,
      "byteOffset": 0
    },
    {
      "name": "core.001_Cylinder.003-Mesh_0_indices",
      "componentType": 5123,
      "count": 2862,
      "min": [
        0
      ],
      "max": [
        1819
      ],
      "type": "SCALAR",
      "bufferView": 2,
      "byteOffset": 0
    },
    {
      "name": "Cylinder.002-Mesh_positions",
      "componentType": 5126,
      "count": 1538,
      "min": [
        -0.21332600712776184,
        10.484036445617676,
        -0.21332600712776184
      ],
      "max": [
        0.21332600712776184,
        42.75948715209961,
        0.21332600712776184
      ],
      "type": "VEC3",
      "bufferView": 0,
      "byteOffset": 21840
    },
    {
      "name": "Cylinder.002-Mesh_normals",
      "componentType": 5126,
      "count": 1538,
      "min": [
        -0.995199978351593,
        -1,
        -0.995199978351593
      ],
      "max": [
        0.995199978351593,
        0.8870000243186951,
        1
      ],
      "type": "VEC3",
      "bufferView": 0,
      "byteOffset": 347832
    },
    {
      "name": "Cylinder.002-Mesh_texcoords",
      "componentType": 5126,
      "count": 1538,
      "min": [
        0,
        0
      ],
      "max": [
        1,
        0.9900000095367432
      ],
      "type": "VEC2",
      "bufferView": 1,
      "byteOffset": 14560
    },
    {
      "name": "Cylinder.002-Mesh_0_indices",
      "componentType": 5123,
      "count": 2484,
      "min": [
        0
      ],
      "max": [
        1537
      ],
      "type": "SCALAR",
      "bufferView": 2,
      "byteOffset": 5724
    },
    {
      "name": "Sphere-Mesh_positions",
      "componentType": 5126,
      "count": 11904,
      "min": [
        -0.33124399185180664,
        11.657308578491211,
        -0.31688499450683594
      ],
      "max": [
        0.31193000078201294,
        41.198612213134766,
        0.29181399941444397
      ],
      "type": "VEC3",
      "bufferView": 0,
      "byteOffset": 40296
    },
    {
      "name": "Sphere-Mesh_normals",
      "componentType": 5126,
      "count": 11904,
      "min": [
        -0.9980000257492065,
        -0.9979000091552734,
        -0.9997000098228455
      ],
      "max": [
        0.9991000294685364,
        0.984000027179718,
        0.9994000196456909
      ],
      "type": "VEC3",
      "bufferView": 0,
      "byteOffset": 366288
    },
    {
      "name": "Sphere-Mesh_texcoords",
      "componentType": 5126,
      "count": 11904,
      "min": [
        0,
        0
      ],
      "max": [
        1,
        1
      ],
      "type": "VEC2",
      "bufferView": 1,
      "byteOffset": 26864
    },
    {
      "name": "Sphere-Mesh_0_indices",
      "componentType": 5123,
      "count": 17280,
      "min": [
        0
      ],
      "max": [
        11903
      ],
      "type": "SCALAR",
      "bufferView": 2,
      "byteOffset": 10692
    },
    {
      "name": "Sphere.001-Mesh_positions",
      "componentType": 5126,
      "count": 11904,
      "min": [
        -0.25906500220298767,
        18.015146255493164,
        -0.4042930006980896
      ],
      "max": [
        0.23285800218582153,
        39.12087631225586,
        0.34642499685287476
      ],
      "type": "VEC3",
      "bufferView": 0,
      "byteOffset": 183144
    },
    {
      "name": "Sphere.001-Mesh_normals",
      "componentType": 5126,
      "count": 11904,
      "min": [
        -0.9932000041007996,
        -0.9997000098228455,
        -0.994700014591217
      ],
      "max": [
        0.9932000041007996,
        0.9954000115394592,
        0.9922999739646912
      ],
      "type": "VEC3",
      "bufferView": 0,
      "byteOffset": 509136
    },
    {
      "name": "Sphere.001-Mesh_texcoords",
      "componentType": 5126,
      "count": 11904,
      "min": [
        0,
        0
      ],
      "max": [
        1,
        1
      ],
      "type": "VEC2",
      "bufferView": 1,
      "byteOffset": 122096
    },
    {
      "name": "Sphere.001-Mesh_0_indices",
      "componentType": 5123,
      "count": 17268,
      "min": [
        0
      ],
      "max": [
        11903
      ],
      "type": "SCALAR",
      "bufferView": 2,
      "byteOffset": 45252
    }
  ],
  "asset": {
    "generator": "obj2gltf",
    "version": "2.0"
  },
  "buffers": [
    {
      "name": "pocky_strawberry",
      "byteLength": 949100,
      "uri": "data:application/octet-stream;base64,"
    }
  ],
  "bufferViews": [
    {
      "name": "bufferView_0",
      "buffer": 0,
      "byteLength": 651984,
      "byteOffset": 0,
      "byteStride": 12,
      "target": 34962
    },
    {
      "name": "bufferView_1",
      "buffer": 0,
      "byteLength": 217328,
      "byteOffset": 651984,
      "byteStride": 8,
      "target": 34962
    },
    {
      "name": "bufferView_2",
      "buffer": 0,
      "byteLength": 79788,
      "byteOffset": 869312,
      "target": 34963
    }
  ],
  "materials": [
    {
      "name": "Material.002",
      "pbrMetallicRoughness": {
        "baseColorFactor": [
          0.8,
          0.413999,
          0.062736,
          1
        ],
        "metallicFactor": 0,
        "roughnessFactor": 0.676000006
      },
      "emissiveFactor": [
        0,
        0,
        0
      ],
      "alphaMode": "OPAQUE",
      "doubleSided": false
    },
    {
      "name": "Material.001",
      "pbrMetallicRoughness": {
        "baseColorFactor": [
          0.8,
          0.205367,
          0.502195,
          1
        ],
        "metallicFactor": 0,
        "roughnessFactor": 0.676000006
      },
      "emissiveFactor": [
        0,
        0,
        0
      ],
      "alphaMode": "OPAQUE",
      "doubleSided": false
    },
    {
      "name": "Material.003",
      "pbrMetallicRoughness": {
        "baseColorFactor": [
          0.8,
          0.166288,
          0.616135,
          1
        ],
        "metallicFactor": 0,
        "roughnessFactor": 0.676000006
      },
      "emissiveFactor": [
        0,
        0,
        0
      ],
      "alphaMode": "OPAQUE",
      "doubleSided": false
    },
    {
      "name": "Material.004",
      "pbrMetallicRoughness": {
        "baseColorFactor": [
          0.8,
          0.058642,
          0.114704,
          1
        ],
        "metallicFactor": 0,
        "roughnessFactor": 0.676000006
      },
      "emissiveFactor": [
        0,
        0,
        0
      ],
      "alphaMode": "OPAQUE",
      "doubleSided": false
    }
  ],
  "meshes": [
    {
      "name": "core.001_Cylinder.003-Mesh",
      "primitives": [
        {
          "attributes": {
            "POSITION": 0,
            "NORMAL": 1,
            "TEXCOORD_0": 2
          },
          "indices": 3,
          "material": 0,
          "mode": 4
        }
      ]
    },
    {
      "name": "Cylinder.002-Mesh",
      "primitives": [
        {
          "attributes": {
            "POSITION": 4,
            "NORMAL": 5,
            "TEXCOORD_0": 6
          },
          "indices": 7,
          "material": 1,
          "mode": 4
        }
      ]
    },
    {
      "name": "Sphere-Mesh",
      "primitives": [
        {
          "attributes": {
            "POSITION": 8,
            "NORMAL": 9,
            "TEXCOORD_0": 10
          },
          "indices": 11,
          "material": 2,
          "mode": 4
        }
      ]
    },
    {
      "name": "Sphere.001-Mesh",
      "primitives": [
        {
          "attributes": {
            "POSITION": 12,
            "NORMAL": 13,
            "TEXCOORD_0": 14
          },
          "indices": 15,
          "material": 3,
          "mode": 4
        }
      ]
    }
  ],
  "nodes": [
    {
      "name": "core.001_Cylinder.003",
      "mesh": 0
    },
    {
      "name": "Cylinder.002",
      "mesh": 1
    },
    {
      "name": "Sphere",
      "mesh": 2
    },
    {
      "name": "Sphere.001",
      "mesh": 3
    }
  ],
  "scene": 0,
  "scenes": [
    {
      "nodes": [
        0,
        1,
        2,
        3
      ]
    }
  ]
}
