{
  "accessors": [
    {
      "name": "core.001_Cylinder.003-Mesh_positions",
      "componentType": 5126,
      "count": 1820,
      "min": [
        -0.1373869925737381,
        -0.010968999937176704,
        -0.1373869925737381
      ],
      "max": [
        0.1373869925737381,
        20.706382751464844,
        0.1373869925737381
      ],
      "type": "VEC3",
      "bufferView": 0,
      "byteOffset": 0
    },
    {
      "name": "core.001_Cylinder.003-Mesh_normals",
      "componentType": 5126,
      "count": 1820,
      "min": [
        -0.995199978351593,
        -1,
        -0.995199978351593
      ],
      "max": [
        0.995199978351593,
        0.998199999332428,
        0.9979000091552734
      ],
      "type": "VEC3",
      "bufferView": 0,
      "byteOffset": 40296
    },
    {
      "name": "core.001_Cylinder.003-Mesh_texcoords",
      "componentType": 5126,
      "count": 1820,
      "min": [
        0,
        0
      ],
      "max": [
        1,
        0.9900000095367432
      ],
      "type": "VEC2",
      "bufferView": 1,
      "byteOffset": 0
    },
    {
      "name": "core.001_Cylinder.003-Mesh_0_indices",
      "componentType": 5123,
      "count": 2862,
      "min": [
        0
      ],
      "max": [
        1819
      ],
      "type": "SCALAR",
      "bufferView": 2,
      "byteOffset": 0
    },
    {
      "name": "Cylinder.001-Mesh_positions",
      "componentType": 5126,
      "count": 1538,
      "min": [
        -0.21332600712776184,
        10.484036445617676,
        -0.21332600712776184
      ],
      "max": [
        0.21332600712776184,
        42.75948715209961,
        0.21332600712776184
      ],
      "type": "VEC3",
      "bufferView": 0,
      "byteOffset": 21840
    },
    {
      "name": "Cylinder.001-Mesh_normals",
      "componentType": 5126,
      "count": 1538,
      "min": [
        -0.995199978351593,
        -1,
        -0.995199978351593
      ],
      "max": [
        0.995199978351593,
        0.8870000243186951,
        1
      ],
      "type": "VEC3",
      "bufferView": 0,
      "byteOffset": 62136
    },
    {
      "name": "Cylinder.001-Mesh_texcoords",
      "componentType": 5126,
      "count": 1538,
      "min": [
        0,
        0
      ],
      "max": [
        1,
        0.9900000095367432
      ],
      "type": "VEC2",
      "bufferView": 1,
      "byteOffset": 14560
    },
    {
      "name": "Cylinder.001-Mesh_0_indices",
      "componentType": 5123,
      "count": 2484,
      "min": [
        0
      ],
      "max": [
        1537
      ],
      "type": "SCALAR",
      "bufferView": 2,
      "byteOffset": 5724
    }
  ],
  "asset": {
    "generator": "obj2gltf",
    "version": "2.0"
  },
  "buffers": [
    {
      "name": "pocky_choco1",
      "byteLength": 118148,
      "uri": "data:application/octet-stream;base64,"
    }
  ],
  "bufferViews": [
    {
      "name": "bufferView_0",
      "buffer": 0,
      "byteLength": 80592,
      "byteOffset": 0,
      "byteStride": 12,
      "target": 34962
    },
    {
      "name": "bufferView_1",
      "buffer": 0,
      "byteLength": 26864,
      "byteOffset": 80592,
      "byteStride": 8,
      "target": 34962
    },
    {
      "name": "bufferView_2",
      "buffer": 0,
      "byteLength": 10692,
      "byteOffset": 107456,
      "target": 34963
    }
  ],
  "materials": [
    {
      "name": "Material.002",
      "pbrMetallicRoughness": {
        "baseColorFactor": [
          0.8,
          0.413999,
          0.062736,
          1
        ],
        "metallicFactor": 0,
        "roughnessFactor": 0.676000006
      },
      "emissiveFactor": [
        0,
        0,
        0
      ],
      "alphaMode": "OPAQUE",
      "doubleSided": false
    },
    {
      "name": "choko",
      "pbrMetallicRoughness": {
        "baseColorFactor": [
          0.069977,
          0.013542,
          0.008112,
          1
        ],
        "metallicFactor": 0,
        "roughnessFactor": 0.676000006
      },
      "emissiveFactor": [
        0,
        0,
        0
      ],
      "alphaMode": "OPAQUE",
      "doubleSided": false
    }
  ],
  "meshes": [
    {
      "name": "core.001_Cylinder.003-Mesh",
      "primitives": [
        {
          "attributes": {
            "POSITION": 0,
            "NORMAL": 1,
            "TEXCOORD_0": 2
          },
          "indices": 3,
          "material": 0,
          "mode": 4
        }
      ]
    },
    {
      "name": "Cylinder.001-Mesh",
      "primitives": [
        {
          "attributes": {
            "POSITION": 4,
            "NORMAL": 5,
            "TEXCOORD_0": 6
          },
          "indices": 7,
          "material": 1,
          "mode": 4
        }
      ]
    }
  ],
  "nodes": [
    {
      "name": "core.001_Cylinder.003",
      "mesh": 0
    },
    {
      "name": "Cylinder.001",
      "mesh": 1
    }
  ],
  "scene": 0,
  "scenes": [
    {
      "nodes": [
        0,
        1
      ]
    }
  ]
}
